<?xml version="1.0" standalone="no"?><!DOCTYPE svg PUBLIC "-//W3C//DTD SVG 1.1//EN" "http://www.w3.org/Graphics/SVG/1.1/DTD/svg11.dtd"><svg t="1590026971052" class="icon" viewBox="0 0 1024 1024" version="1.1" xmlns="http://www.w3.org/2000/svg" p-id="6356" xmlns:xlink="http://www.w3.org/1999/xlink" width="200" height="200"><defs><style type="text/css"></style></defs><path d="M320 296v-80c0-13.2 10.8-24 24-24h80c13.2 0 24 10.8 24 24v80c0 13.2-10.8 24-24 24h-80c-13.2 0-24-10.8-24-24z m280 24h80c13.2 0 24-10.8 24-24v-80c0-13.2-10.8-24-24-24h-80c-13.2 0-24 10.8-24 24v80c0 13.2 10.8 24 24 24z m-256 192h80c13.2 0 24-10.8 24-24v-80c0-13.2-10.8-24-24-24h-80c-13.2 0-24 10.8-24 24v80c0 13.2 10.8 24 24 24z m256 0h80c13.2 0 24-10.8 24-24v-80c0-13.2-10.8-24-24-24h-80c-13.2 0-24 10.8-24 24v80c0 13.2 10.8 24 24 24z m-152 168v-80c0-13.2-10.8-24-24-24h-80c-13.2 0-24 10.8-24 24v80c0 13.2 10.8 24 24 24h80c13.2 0 24-10.8 24-24z m152 24h80c13.2 0 24-10.8 24-24v-80c0-13.2-10.8-24-24-24h-80c-13.2 0-24 10.8-24 24v80c0 13.2 10.8 24 24 24z m360 248v72H64v-72c0-13.2 10.8-24 24-24h39V48c0-26.6 21.4-48 48-48h674c26.6 0 48 21.4 48 48v880H936c13.2 0 24 10.8 24 24zM223 926H448v-134c0-13.2 10.8-24 24-24h80c13.2 0 24 10.8 24 24v134h225V98L224 96l-1 830z" p-id="6357"></path></svg>