<?xml version="1.0" standalone="no"?><!DOCTYPE svg PUBLIC "-//W3C//DTD SVG 1.1//EN" "http://www.w3.org/Graphics/SVG/1.1/DTD/svg11.dtd"><svg t="1590026630770" class="icon" viewBox="0 0 1024 1024" version="1.1" xmlns="http://www.w3.org/2000/svg" p-id="2871" xmlns:xlink="http://www.w3.org/1999/xlink" width="200" height="200"><defs><style type="text/css"></style></defs><path d="M809.711978 258.339372 809.793881 258.339372 809.793881 258.206279Z" p-id="2872"></path><path d="M257.159448 1023.790122l211.623595 0 0-212.693461 85.102979 0 0 212.693461 212.94941 0L766.835433 0 257.159448 0 257.159448 1023.790122zM554.147091 128.655229l127.759408 0 0 127.718456-127.759408 0L554.147091 128.655229zM554.147091 341.94761l127.759408 0 0 129.085223-127.759408 0L554.147091 341.94761zM554.147091 555.234873l127.759408 0 0 127.718456-127.759408 0L554.147091 555.234873zM340.772805 128.655229l0.087023 0 127.759408 0 0 127.718456L340.772805 256.373685 340.772805 128.655229zM340.772805 341.94761l0.087023 0 127.759408 0 0 129.085223L340.772805 471.032833 340.772805 341.94761zM340.772805 555.234873l0.087023 0 127.759408 0 0 127.718456L340.772805 682.953329 340.772805 555.234873z" p-id="2873"></path><path d="M0.319936 1023.790122l170.420956 0 0-211.966567 42.231554 0L212.972446 258.54925 0.319936 258.54925 0.319936 1023.790122zM84.225075 384.90094l86.510698 0 0 127.672386-86.510698 0L84.225075 384.90094zM84.225075 597.553449l86.510698 0 0 127.718456-86.510698 0L84.225075 597.553449z" p-id="2874"></path><path d="M809.793881 258.339372l0 553.484183 42.359528 0 0 212.181564 171.613677 0L1023.767087 258.339372 809.793881 258.339372zM938.577085 725.271906l-86.55165 0 0-127.718456 86.55165 0L938.577085 725.271906zM938.577085 512.578444l-86.55165 0L852.025435 384.90094l86.55165 0L938.577085 512.578444z" p-id="2875"></path></svg>