<?xml version="1.0" standalone="no"?><!DOCTYPE svg PUBLIC "-//W3C//DTD SVG 1.1//EN" "http://www.w3.org/Graphics/SVG/1.1/DTD/svg11.dtd"><svg t="1590026752970" class="icon" viewBox="0 0 1024 1024" version="1.1" xmlns="http://www.w3.org/2000/svg" p-id="3289" xmlns:xlink="http://www.w3.org/1999/xlink" width="200" height="200"><defs><style type="text/css"></style></defs><path d="M76.8 947.2V140.8C76.8 62.976 139.776 0 217.6 0h332.8C628.224 0 691.2 62.976 691.2 140.8v78.848l179.712 93.184c46.592 24.064 76.288 72.192 76.288 124.928V947.2h38.4c20.992 0 38.4 17.408 38.4 38.4s-17.408 38.4-38.4 38.4H38.4c-20.992 0-38.4-17.408-38.4-38.4s17.408-38.4 38.4-38.4H76.8z m614.4 0h179.2V438.272c0-24.064-13.312-46.08-34.304-56.832L691.2 306.176V947.2z m-537.6 0h460.8V140.8c0-16.896-6.656-33.28-18.944-45.056-11.776-11.776-28.16-18.944-45.056-18.944h-332.8c-16.896 0-33.28 6.656-45.056 18.944-12.288 11.776-18.944 28.16-18.944 45.056V947.2z m0 0" p-id="3290"></path><path d="M330.24 394.24h-81.92c-20.992 0-38.4-17.408-38.4-38.4s17.408-38.4 38.4-38.4h81.92c20.992 0 38.4 17.408 38.4 38.4S351.232 394.24 330.24 394.24zM519.68 394.24h-81.92c-20.992 0-38.4-17.408-38.4-38.4s17.408-38.4 38.4-38.4h81.92c20.992 0 38.4 17.408 38.4 38.4s-17.408 38.4-38.4 38.4zM330.24 512h-81.92c-20.992 0-38.4-17.408-38.4-38.4s17.408-38.4 38.4-38.4h81.92c20.992 0 38.4 17.408 38.4 38.4s-17.408 38.4-38.4 38.4zM519.68 512h-81.92c-20.992 0-38.4-17.408-38.4-38.4s17.408-38.4 38.4-38.4h81.92c20.992 0 38.4 17.408 38.4 38.4s-17.408 38.4-38.4 38.4zM330.24 629.76h-81.92c-20.992 0-38.4-17.408-38.4-38.4s17.408-38.4 38.4-38.4h81.92c20.992 0 38.4 17.408 38.4 38.4s-17.408 38.4-38.4 38.4zM519.68 629.76h-81.92c-20.992 0-38.4-17.408-38.4-38.4s17.408-38.4 38.4-38.4h81.92c20.992 0 38.4 17.408 38.4 38.4s-17.408 38.4-38.4 38.4zM330.24 747.52h-81.92c-20.992 0-38.4-17.408-38.4-38.4s17.408-38.4 38.4-38.4h81.92c20.992 0 38.4 17.408 38.4 38.4s-17.408 38.4-38.4 38.4zM519.68 747.52h-81.92c-20.992 0-38.4-17.408-38.4-38.4s17.408-38.4 38.4-38.4h81.92c20.992 0 38.4 17.408 38.4 38.4s-17.408 38.4-38.4 38.4z" p-id="3291"></path></svg>